<svg version="1" xmlns="http://www.w3.org/2000/svg" width="1200" height="1200" viewBox="0 0 900.000000 900.000000"><g fill="#fff"><path d="M239.5 36.7c-3.2.8-5.3 3.2-10.5 11.8-7.1 11.8-12 21.5-12 23.8 0 1.2 3.5 7.9 7.8 15.1 10.2 17.2 10 16.8 11.2 19.1.6 1.1 1.9 3.3 3 5 1.1 1.6 2.4 3.9 2.9 5s4 7.2 7.8 13.5 7.2 12.2 7.6 13c.4.8 1.6 2.8 2.7 4.5 3.2 5.1 8 14.8 7.5 15.3-.2.3-.7-.3-1.1-1.2-.3-.9-1.2-1.6-2-1.6s-1.4-.5-1.4-1.1c0-.7-.6-1.7-1.3-2.3-.8-.6-5.1-6.1-9.7-12.1-4.7-6.1-8.7-11.2-9-11.5-.3-.3-3.5-4.3-7.1-8.9-3.5-4.6-7.5-9.8-8.9-11.6-1.4-1.8-5.6-7.2-9.3-12.1-3.8-4.9-7.6-8.9-8.5-8.9-1 0-2 1.2-2.6 3-.4 1.6-1.4 4.6-2.1 6.5-1.2 3.3-2.5 7.7-5.9 20-2.4 8.9-4.6 20.7-4.6 25.3 0 3.8.5 4.8 4.6 8.7 7.7 7.6 23.6 26.1 34.4 40.4 18.9 24.9 20.7 27.6 19.1 27.6-1.1 0-6.8-4.7-18.4-15.3-9.9-9.1-9.4-8.6-15.8-14.2-2.5-2.2-8.7-7.8-13.9-12.5-5.1-4.7-10-8.5-10.9-8.5-1.3 0-1.7 1.8-2.2 10-.4 5.5-1.1 13.1-1.7 17-.9 6-1.5 17-1.3 22.6.1.9 1.3 2.9 2.7 4.5 1.4 1.6 5.1 6 8.2 9.9 3.1 3.8 5.9 7.2 6.2 7.5.3.3 3.7 4.3 7.5 9s7.4 9 8 9.6c.5.6 3.5 4.2 6.5 7.9 3 3.8 6.2 7.6 7 8.5 3.1 3.2 7.3 9.1 6.8 9.5-.9.9-11.5-8.6-45-40.3-3.6-3.4-7.2-6.2-7.9-6.2-1 0-1.1 5.2-.6 24.1l.7 24.1 5.2 6.7c2.9 3.6 5.5 6.8 5.8 7.1.3.3 3.5 4.1 7 8.5s9.3 11.6 12.9 16c3.5 4.4 6.7 8.2 7 8.5 1.7 1.3 7.1 8.9 7.1 9.9 0 1.7-1.3 1.3-4.7-1.7-4.6-4.1-23.7-21.7-31.2-28.9-6.2-5.9-9.1-7.6-9.1-5.3 0 .5.7 4.2 1.5 8.2.8 4 1.9 10.4 2.5 14.3 2.8 16.8 1.3 14.2 17.8 30.8 20.8 21 33.2 34 33.2 34.9 0 .4-.3.8-.7.8-1.1-.1-18.7-14.4-27.6-22.4-18.9-16.9-17.9-16.4-15.5-6.9 1.5 6.6 7.3 24.2 9.1 27.8.8 1.6 2.7 5.7 4.3 9 7.3 15.9 28.2 47.5 41.8 63.3 1.3 1.5 5.4 6.3 9.2 10.7 17.6 20.6 63.1 66 89.4 89 3 2.7 6 5.4 6.6 5.9.6.6 5.8 5.4 11.5 10.6 32.7 29.9 36.3 34 36.4 41.5 0 5.7-2.3 9.7-6.7 11.6-4.3 1.8-18.8.5-48.8-4.5-4.7-.8-13-2.2-18.5-3.1-5.5-.9-12.2-2.1-14.9-2.7-2.6-.6-7.4-1.4-10.5-1.8-3.1-.4-8.3-1.3-11.6-1.9-3.3-.7-9.4-1.8-13.5-2.6-4.1-.7-11.8-2.2-17-3.1-12.6-2.4-28.2-2.3-33.3 0-2 1-3.7 2.2-3.7 2.6 0 .9 5 2 8.9 2 1.4 0 4.4.7 6.6 1.5 2.2.8 6.1 1.4 8.6 1.5 2.5 0 5.4.7 6.5 1.5 1 .8 3.9 1.5 6.4 1.5 5.6 0 9.2.9 8.4 2.1-.8 1.4-10.8 1-15.4-.6-2.3-.8-7.2-1.5-10.9-1.5-3.6 0-8.4-.5-10.6-1-2.2-.5-8.3-1.2-13.5-1.6l-9.5-.7-10 7.6c-14.3 10.8-19.3 15.5-17.5 16 2 .6 26.1 2.5 47 3.7 9.1.6 19 1.4 22 1.9s9.6 1 14.6 1c10.2.1 15.6.9 14.8 2.2-.7 1.2-33.5 1.1-44.9-.1-4.9-.5-20.5-1.2-34.6-1.6l-25.6-.7-4.7 5.9c-6.1 7.6-11.6 16.5-21.4 34.3-2.9 5.5-1.9 5.8 11.1 3.8 21.7-3.4 40.3-4.2 96.7-4.2 52.7 0 84 1 106.5 3.6 5 .5 14.7 1.4 21.5 1.9 15.2 1.1 29.9 2.6 44.5 4.5 6.1.8 13 1.6 15.5 1.8 2.5.2 8.1.9 12.5 1.6 4.4.7 13.2 1.9 19.5 2.7 6.3.9 13.2 1.9 15.3 2.4 4.3.9 10.3-.6 11.2-2.8.7-1.9-1.3-4.9-8.5-13.2-3.1-3.6-9.4-11-14-16.5-4.7-5.5-8.9-10.5-9.5-11.1-.5-.6-3.5-4.2-6.5-7.9s-9.1-11.1-13.5-16.4c-12.8-15.5-23.9-29.1-25.5-31.4-1.5-2.2-24.6-31.4-27.9-35.2-2.2-2.6-23-29.7-25.9-33.7-1.3-1.8-3.7-5-5.5-7.2-1.8-2.1-3.9-4.9-4.7-6.1-.8-1.3-4.2-5.8-7.5-10.1-13.4-17.6-28.6-43.6-35.5-60.9-.7-2-2.6-6.9-5.4-14.3-7-18.3-13.4-49.4-13.8-66.9-.4-12.9.5-13.3 6.2-2.8 3.5 6.4 4.7 8.1 5.4 7.4.2-.2 1.1-3.9 2-8.2 1.6-7.5 1.6-7.9-.4-12.2-1.1-2.5-4.6-8.7-7.7-13.8l-5.6-9.2.6-7c.7-8.4 2.4-14.8 3.9-14.3.6.2 2 2.2 3.2 4.3 10.4 19.3 11.9 19.9 13.2 5.6.7-7.6.7-7.6-8.3-22.8l-5.5-9.2 1.2-5.3c1.3-6.1 4.1-12.2 5.4-12 .9 0 5.5 7.3 7.5 11.7.5 1.1 1.8 2.8 2.9 3.8 2 1.9 2.1 1.8 2.7-1.5.4-1.9.7-6.5.8-10.3.2-6.7 0-7.3-4.6-14.8-2.6-4.3-4.7-8.6-4.7-9.6 0-4.8 8.1-16.1 11.5-16.1 4.2 0 12.6 11.2 34.1 45.8 2.1 3.5 4.6 7.4 5.4 8.7 7.3 11.7 27.9 46.2 31.3 52.5 1.4 2.5 3.4 6.1 4.5 8 2.9 5 9.7 18.9 10.9 22.5 2.6 7.3 6.1 23.3 8.7 39.5 3.1 19.4 3.8 23.7 4.6 31.5.4 4.4 1.3 11.4 1.9 15.5 1.1 7.7 2.7 20.3 4.1 32 .4 3.6 1.3 9.4 2 13 5.5 29.3 9.3 47.9 11.5 57 1.9 7.7 3.5 14.8 4.4 19.5.4 2.2 1.2 5.6 1.8 7.5.6 1.9 1.9 6.2 2.9 9.5 1.8 5.8 4.1 11.4 6.9 16.4 2.6 4.8 12.1 13.4 17.2 15.7 2.8 1.3 5.5 2.4 5.8 2.4.4 0 2.6 1.3 4.9 2.8 2.2 1.5 4.8 3.1 5.6 3.5 2.2 1 13.6 9.3 22.1 16.1 9.4 7.5 30.1 28.3 36 36.1 5.9 7.8 10 14.7 12.8 21.5 1.2 3 2.6 6.4 3.1 7.5.4 1.1 1.5 4.2 2.4 7 .8 2.7 2 6.6 2.6 8.5 2.8 8.8 6.4 22.9 8 31.7.6 2.9 1.5 6.4 2 7.8.6 1.5 1 4.2 1 6.1 0 6.3 1.3 7.4 8.3 7.4 3.4 0 7.8-.5 9.7-1 1.9-.6 7.4-1.7 12.2-2.5 12-2 17.5-.9 22.3 4.8 5.2 6 5.7 9 4.9 31.4l-.7 19.8 4.4 4.3c2.4 2.4 6.4 5.4 8.9 6.6 6 3 15.4 5.8 18 5.4 3.3-.5 2.6-2.2-1.1-2.9-1.9-.3-5.3-1.5-7.6-2.7-3.7-1.9-4.3-2.7-4.3-5.5 0-1.7.7-5.2 1.6-7.7 1.8-5.1 1.3-8.9-2-15.7-5.2-10.9-5.6-12.2-5.6-21.4 0-8.9 2.3-18.9 4.3-18.9.4 0 2.7-.9 5.1-2 6.5-2.9 14.2-10.3 16.2-15.6l1.7-4.5 5.1.6c2.8.4 7.6 1.3 10.6 2.1 6.4 1.6 9.9 1.8 13.4.4 2.2-.8 2.9-.5 5.9 3.2 3.9 4.7 6.3 4.5 5.2-.6-2.5-12.2-1.4-13.4 5.3-6 3.5 3.7 4.7 4.4 6.5 3.8 4.5-1.5 6.2-1 7.8 2.4 1.3 2.5 1.8 2.9 2.3 1.6 1-2.6.7-5.2-1.4-11.1-2.4-6.8-4.6-9.3-11.2-12.7-5-2.6-16.9-5.6-21.8-5.6l-2.5.1 2.8 1.5c1.5.8 2.7 1.8 2.7 2.3 0 .5.9 1.1 2.1 1.4 1.2.3 1.8 1 1.4 1.6-.9 1.5-3.8 1.4-5.3-.2-.9-.8-5.6-1.3-14-1.5-11.2-.3-13.2-.1-17.2 1.8-12.4 5.8-21.8 13.8-26.1 22.2-1.6 3.2-3.5 5.8-4.1 5.8-1.3 0-9.8-8.8-9.8-10.2 0-.4-1.1-2.5-2.3-4.6-1.3-2-4.2-7.1-6.4-11.2s-5-9.3-6.3-11.5c-1.2-2.2-4.1-7.5-6.4-11.8-2.2-4.3-6.2-11.8-8.7-16.5-2.6-4.8-7.2-13.7-10.3-19.7-3.2-6.1-9.2-17.8-13.6-26-13.6-26.2-21-41.1-21-42.7 0-1.6 22.8-20.3 34.5-28.3 3.9-2.6 9-5.7 11.5-6.8 6.6-2.9 22.3-5.7 32-5.7 7.9 0 9.3.3 19.5 4.7 12.7 5.4 19 9.9 20 14.3.6 2.6 1 3 2.8 2.4 2.9-.8 5.4-3 8.8-7.8 2.5-3.3 2.9-4.9 2.9-10.1 0-6.2-2.1-12.5-5.5-16.9-1.2-1.6-1.4-3.7-.9-10.2.7-8 .6-8.4-2.5-13.3-1.7-2.8-3.1-6.1-3.1-7.3 0-1.2-1.4-5-3.1-8.4-4-8.3-13-16.6-23.5-21.8-4.4-2.1-8.8-4.3-9.8-4.9-1.1-.5-6.4-1.5-11.9-2.2-10.5-1.4-23-.9-49.2 2.1-16.8 1.8-34 1.8-43.4-.1-4.1-.9-7.8-1.2-8.2-.8-.5.5 3.5 4.9 8.9 9.8 5.3 5 11.8 11 14.4 13.3l4.7 4.4 10.8-1.7c18.2-2.9 26.8-3 35.2-.7 8.5 2.4 13.3 5.8 16.1 11.2 3.7 7.2 1.9 16.1-4.4 22.1-3.4 3.2-3.3 5.7.2 6.5 1.5.3 4.1 1.2 5.9 2 1.7.8 3.5 1.4 4 1.4 1.6 0 8.7 4 9.5 5.3.6 1.1-1.7 1.6-11 2.6-6.4.7-13.3 1.7-15.2 2.3-1.9.5-5.1 1.3-7 1.8-3.3.8-5.6 1.5-14.5 4.7-8.5 3.1-20.8 8.9-28.8 13.5-7.5 4.3-7.9 4.2-13.2-5.7-1.2-2.2-3.2-5.8-4.4-7.9-1.3-2.2-3.4-6-4.8-8.5-1.3-2.5-3.5-6.4-4.7-8.6-4.2-7.5-9.9-18-12.8-23.5-1.6-3-4.4-8.2-6.3-11.5-1.8-3.3-4.8-8.9-6.7-12.5-1.9-3.6-5.1-9.7-7.2-13.5-7.2-13.4-13.5-25.2-26.2-49.3-13.4-25.2-17.1-32.3-31.1-59.2-5.6-10.7-11.6-21.9-18.5-35-3.3-6.2-7.3-13.6-13.8-25.5-2.4-4.4-5.6-10.5-7.2-13.5-1.6-3-4.4-8.2-6.3-11.5-1.8-3.3-4.5-8.3-5.9-11-1.4-2.8-4.4-8.4-6.7-12.5s-5.7-10.4-7.6-14c-1.9-3.6-5-9.2-6.8-12.5-1.8-3.3-4.5-8.3-5.9-11-1.4-2.8-4.2-7.9-6.2-11.5-3.5-6.4-7.9-14.5-14.4-26.5-1.8-3.3-4.6-8.4-6.1-11.3-1.6-2.8-4.2-7.7-5.9-10.7-1.6-3-4.4-8.1-6.2-11.3-1.7-3.1-4.4-8.2-6-11.2-6-11.3-17.3-32.1-19.9-36.5-1-1.7-3-5.3-4.4-8-1.4-2.8-4.1-7.7-6-11-1.8-3.3-4.5-8.3-6-11-1.4-2.8-3.6-6.8-4.9-9-1.2-2.2-3.8-6.9-5.8-10.5-9-16.4-10.3-18.7-12.5-22.2-1.3-2.1-2.3-4-2.3-4.2 0-2.1-11.3-19.1-15.4-23.3-5.1-5.1-9.2-6.8-14.1-5.6zm428.7 515.6c4 3.5 8.3 7.2 9.6 8.2 1.2 1.1 2.2 3 2.2 4.3 0 2.1-.3 2.3-2.2 1.7-1.3-.4-5.7-1.1-9.8-1.5-4.1-.5-7.6-.9-7.7-.9-1.3-.4-4.3-9-4.3-12.4 0-7.8 2.6-7.7 12.2.6z"/><path d="M344.7 303.6c-.4.4-.7 2.4-.7 4.4 0 2-.5 5.2-1.1 7-1.4 4-.3 7.7 4.9 16.5 5.5 9.2 6.7 9.6 7.7 2.3 1.1-7.9.9-14.7-.6-16.4-1.4-1.7-3.2-4.6-4.8-7.9-1.7-3.4-4.6-6.6-5.4-5.9zM366.9 344.7c-.6 1.5-1.3 5.4-1.6 8.8-.4 5-.2 6.7 1.7 10.3 1.2 2.4 2.8 4.1 3.4 3.9 1.4-.5 3.4-8 3.5-13.4.1-4.2-3.2-12.3-5-12.3-.5 0-1.4 1.2-2 2.7zM338 347.7c0 .3-.7 4.1-1.6 8.5l-1.6 7.8 3.8 6.8c2 3.7 4.4 7.9 5.1 9.4.8 1.6 1.8 2.8 2.3 2.8 1.2 0 3-5.8 3.7-12.1.6-5.9.7-5.4-6.4-17.4-.7-1.1-1.7-3-2.2-4.3-1-2-3.1-3.1-3.1-1.5zM359.6 387.6c-.4 1.6-.7 6.3-.9 10.4-.1 6.4.2 8.1 2.2 11.3 1.3 2.1 2.6 3.5 3 3.2.3-.4 1.3-4.1 2.2-8.3 1.8-8.6 1-12.5-3.5-17.1l-2.4-2.3-.6 2.8zM330.5 392.9c-.3.6-.8 4.6-1.2 8.9l-.6 8 4.7 7.6c2.5 4.2 4.6 8.1 4.6 8.6 0 .6.6 1 1.3 1 1.2 0 3.7-10.8 3.7-15.9 0-2.2-2.2-7.3-5-11.6-1.1-1.7-2.4-4-3-5.3-1-2.2-3.4-3-4.5-1.3zM353.7 429c-.3.8-.8 3.5-1.1 6-.3 2.5-.9 6-1.2 7.8-.7 3.4.2 6.1 3.9 11.5 1 1.5 2.2 2.5 2.6 2.2.5-.2 1.1-4.5 1.5-9.4.7-9.3-.1-12.8-3.7-17.6-1.3-1.6-1.6-1.7-2-.5zM351.9 746.7c-2.8 6-6.3 13.5-7.9 16.8-3.3 6.8-9.3 19.7-14 30-1.8 3.8-4.3 9.3-5.6 12.1-1.3 2.8-2.4 5.4-2.4 5.7 0 .4 1.5.7 3.4.7 3.3 0 3.6-.3 5.5-5.3 4.2-11.3 8.1-18.5 10.4-19.1 3.2-.8 30-.7 31.3.2 1.6 1 5.1 7.8 8.4 16.5l2.8 7.2 4.8.3c5.5.4 7.4-.9 5.3-3.5-.8-1-2.1-3.4-3-5.3-.9-1.9-3.2-6.9-5.2-11-1.9-4.1-4.7-10.2-6.2-13.5-1.4-3.3-3.9-8.7-5.4-12-1.5-3.3-3.7-8-4.9-10.5-8.8-19.3-9.1-19.9-11.5-20-.4 0-3 4.8-5.8 10.7zm8.1 11c1.2 2.7 3 6.6 4 8.8 1 2.2 3 6.6 4.5 9.7 1.4 3.2 2.4 6.2 2 6.8-1 1.6-27.4 1.3-28.1-.3-.4-1.3 1.3-6 5.6-15.2 1-2.2 2.9-6.4 4.2-9.3 2.9-6.6 4.9-6.8 7.8-.5zM430.5 738.5c-12 3.1-21.6 10.7-26.5 21.1-2.7 5.7-3 7.4-3 16.1 0 8.7.3 10.2 3.1 15.9 4.8 10 13.5 16.8 25.9 20.5 6 1.8 25.4 1.8 29.7 0 3.2-1.3 7.8-7.5 6.8-9.1-.3-.5-2.5.4-4.8 2-9.8 6.6-24.9 6.3-35.4-.7-8.5-5.6-12.3-12.2-14.4-24.7-2.8-16.3 3.4-29.9 16-35.8 3.7-1.7 6.6-2.1 14.7-2.1 9.1 0 10.6.2 14.9 2.6 6 3.4 6.9 3.4 6-.1-.9-3.8-1.4-4.1-8.1-5.7-7.2-1.7-18.2-1.7-24.9 0zM146.9 738.8c-.5 4.1 0 72.2.5 73.1 1 1.6 26.7 1.4 33.6-.3 7.4-1.8 10.7-3.4 16-7.5 5.4-4.3 6.4-5.4 9.2-10.6 2.2-4.2 4.8-15 4.8-20 0-4.5-2.6-15.5-4.5-19.2-2.1-4.2-9.7-10.8-15.4-13.5-4.2-2-6.5-2.2-24.3-2.4-10.9-.2-19.8 0-19.9.4zm36.6 5.3c6.5 2.9 11.6 8.4 14.3 15.3 2.9 7.5 3.1 23.2.5 30.9-2.1 6-8.9 13.4-14.7 16.1-4.7 2.1-23.2 3.3-25.6 1.7-1.3-.9-1.5-5.8-1.8-32.1-.2-23 0-31.5.9-32.6 2-2.4 20.4-1.9 26.4.7zM230.7 738.9l-5.8.6v36c0 29 .2 36 1.3 36.2.7.1 9.1.4 18.6.6l17.3.3.5-2.3c1.2-4.6.1-5.3-6.1-3.7-3.3.9-8.8 1.4-13.3 1.2l-7.7-.3v-32h6c3.3 0 8 .3 10.4.5 3.7.4 4.4.2 5.1-1.6 1.5-3.8.1-4.3-9.6-3.1-5 .5-9.9.7-10.8.4-1.5-.6-1.6-2.4-1.4-14.9l.3-14.3h13c12.7 0 13-.1 13.3-2.3.3-2.2.3-2.2-12.5-2-7 .1-15.4.4-18.6.7zM279.3 738.7c-.5.2-.7 16.6-.7 36.5l.2 36.3 17.8.6c10.5.3 18.4.1 19.2-.4 1.4-1.1 1.6-5.3.3-6.1-.5-.3-3.2.1-6 1-3.3.9-8.1 1.4-13.4 1.2l-8.2-.3V739.2l-4.2-.4c-2.4-.2-4.6-.2-5-.1zM471 739.8c0 .4 1 1.8 2.3 3.2 1.3 1.4 7.8 9.8 14.6 18.8l12.2 16.3-.1 15.7c-.1 8.6-.1 16.3-.1 17 .1.9 1.5 1.2 4.8 1l4.7-.3-.3-17.2-.3-17.2 5.9-7.8c3.2-4.3 7.4-10.1 9.3-12.8 1.8-2.8 3.6-5.2 3.9-5.5.3-.3 1.9-2.4 3.5-4.8 1.6-2.3 3.3-4.2 3.7-4.2.5 0 .9-.7.9-1.5 0-1-1-1.5-3.3-1.5-3.1 0-3.8.7-9.6 9.2-3.4 5.1-8.1 12.1-10.4 15.5-2.7 4-4.9 6.2-6.2 6.2-1.5.1-4.4-3.1-10.4-11.1-4.6-6.1-9.4-13.1-10.5-15.5l-2.1-4.3h-6.2c-3.5 0-6.3.3-6.3.8z"/></g></svg>