<?xml version="1.0" standalone="no"?>
<!DOCTYPE svg PUBLIC "-//W3C//DTD SVG 20010904//EN"
 "http://www.w3.org/TR/2001/REC-SVG-20010904/DTD/svg10.dtd">
<svg version="1.0" xmlns="http://www.w3.org/2000/svg"
 width="900.000000pt" height="900.000000pt" viewBox="0 0 900.000000 900.000000"
 preserveAspectRatio="xMidYMid meet">
<metadata>
Created by potrace 1.10, written by Peter Selinger 2001-2011
</metadata>
<g transform="translate(0.000000,900.000000) scale(0.100000,-0.100000)"
fill="#ffffff" stroke="none">
<path d="M2395 8633 c-32 -8 -53 -32 -105 -118 -71 -118 -120 -215 -120 -238
0 -12 35 -79 78 -151 102 -172 100 -168 112 -191 6 -11 19 -33 30 -50 11 -16
24 -39 29 -50 5 -11 40 -72 78 -135 38 -63 72 -122 76 -130 4 -8 16 -28 27
-45 32 -51 80 -148 75 -153 -2 -3 -7 3 -11 12 -3 9 -12 16 -20 16 -8 0 -14 5
-14 11 0 7 -6 17 -13 23 -8 6 -51 61 -97 121 -47 61 -87 112 -90 115 -3 3 -35
43 -71 89 -35 46 -75 98 -89 116 -14 18 -56 72 -93 121 -38 49 -76 89 -85 89
-10 0 -20 -12 -26 -30 -4 -16 -14 -46 -21 -65 -12 -33 -25 -77 -59 -200 -24
-89 -46 -207 -46 -253 0 -38 5 -48 46 -87 77 -76 236 -261 344 -404 189 -249
207 -276 191 -276 -11 0 -68 47 -184 153 -99 91 -94 86 -158 142 -25 22 -87
78 -139 125 -51 47 -100 85 -109 85 -13 0 -17 -18 -22 -100 -4 -55 -11 -131
-17 -170 -9 -60 -15 -170 -13 -226 1 -9 13 -29 27 -45 14 -16 51 -60 82 -99
31 -38 59 -72 62 -75 3 -3 37 -43 75 -90 38 -47 74 -90 80 -96 5 -6 35 -42 65
-79 30 -38 62 -76 70 -85 31 -32 73 -91 68 -95 -9 -9 -115 86 -450 403 -36 34
-72 62 -79 62 -10 0 -11 -52 -6 -241 l7 -241 52 -67 c29 -36 55 -68 58 -71 3
-3 35 -41 70 -85 35 -44 93 -116 129 -160 35 -44 67 -82 70 -85 17 -13 71 -89
71 -99 0 -17 -13 -13 -47 17 -46 41 -237 217 -312 289 -62 59 -91 76 -91 53 0
-5 7 -42 15 -82 8 -40 19 -104 25 -143 28 -168 13 -142 178 -308 208 -210 332
-340 332 -349 0 -4 -3 -8 -7 -8 -11 1 -187 144 -276 224 -189 169 -179 164
-155 69 15 -66 73 -242 91 -278 8 -16 27 -57 43 -90 73 -159 282 -475 418
-633 13 -15 54 -63 92 -107 176 -206 631 -660 894 -890 30 -27 60 -54 66 -59
6 -6 58 -54 115 -106 327 -299 363 -340 364 -415 0 -57 -23 -97 -67 -116 -43
-18 -188 -5 -488 45 -47 8 -130 22 -185 31 -55 9 -122 21 -149 27 -26 6 -74
14 -105 18 -31 4 -83 13 -116 19 -33 7 -94 18 -135 26 -41 7 -118 22 -170 31
-126 24 -282 23 -333 0 -20 -10 -37 -22 -37 -26 0 -9 50 -20 89 -20 14 0 44
-7 66 -15 22 -8 61 -14 86 -15 25 0 54 -7 65 -15 10 -8 39 -15 64 -15 56 0 92
-9 84 -21 -8 -14 -108 -10 -154 6 -23 8 -72 15 -109 15 -36 0 -84 5 -106 10
-22 5 -83 12 -135 16 l-95 7 -100 -76 c-143 -108 -193 -155 -175 -160 20 -6
261 -25 470 -37 91 -6 190 -14 220 -19 30 -5 96 -10 146 -10 102 -1 156 -9
148 -22 -7 -12 -335 -11 -449 1 -49 5 -205 12 -346 16 l-256 7 -47 -59 c-61
-76 -116 -165 -214 -343 -29 -55 -19 -58 111 -38 217 34 403 42 967 42 527 0
840 -10 1065 -36 50 -5 147 -14 215 -19 152 -11 299 -26 445 -45 61 -8 130
-16 155 -18 25 -2 81 -9 125 -16 44 -7 132 -19 195 -27 63 -9 132 -19 153 -24
43 -9 103 6 112 28 7 19 -13 49 -85 132 -31 36 -94 110 -140 165 -47 55 -89
105 -95 111 -5 6 -35 42 -65 79 -30 37 -91 111 -135 164 -128 155 -239 291
-255 314 -15 22 -246 314 -279 352 -22 26 -230 297 -259 337 -13 18 -37 50
-55 72 -18 21 -39 49 -47 61 -8 13 -42 58 -75 101 -134 176 -286 436 -355 609
-7 20 -26 69 -54 143 -70 183 -134 494 -138 669 -4 129 5 133 62 28 35 -64 47
-81 54 -74 2 2 11 39 20 82 16 75 16 79 -4 122 -11 25 -46 87 -77 138 l-56 92
6 70 c7 84 24 148 39 143 6 -2 20 -22 32 -43 104 -193 119 -199 132 -56 7 76
7 76 -83 228 l-55 92 12 53 c13 61 41 122 54 120 9 0 55 -73 75 -117 5 -11 18
-28 29 -38 20 -19 21 -18 27 15 4 19 7 65 8 103 2 67 0 73 -46 148 -26 43 -47
86 -47 96 0 48 81 161 115 161 42 0 126 -112 341 -458 21 -35 46 -74 54 -87
73 -117 279 -462 313 -525 14 -25 34 -61 45 -80 29 -50 97 -189 109 -225 26
-73 61 -233 87 -395 31 -194 38 -237 46 -315 4 -44 13 -114 19 -155 11 -77 27
-203 41 -320 4 -36 13 -94 20 -130 55 -293 93 -479 115 -570 19 -77 35 -148
44 -195 4 -22 12 -56 18 -75 6 -19 19 -62 29 -95 18 -58 41 -114 69 -164 26
-48 121 -134 172 -157 28 -13 55 -24 58 -24 4 0 26 -13 49 -28 22 -15 48 -31
56 -35 22 -10 136 -93 221 -161 94 -75 301 -283 360 -361 59 -78 100 -147 128
-215 12 -30 26 -64 31 -75 4 -11 15 -42 24 -70 8 -27 20 -66 26 -85 28 -88 64
-229 80 -317 6 -29 15 -64 20 -78 6 -15 10 -42 10 -61 0 -63 13 -74 83 -74 34
0 78 5 97 10 19 6 74 17 122 25 120 20 175 9 223 -48 52 -60 57 -90 49 -314
l-7 -198 44 -43 c24 -24 64 -54 89 -66 60 -30 154 -58 180 -54 33 5 26 22 -11
29 -19 3 -53 15 -76 27 -37 19 -43 27 -43 55 0 17 7 52 16 77 18 51 13 89 -20
157 -52 109 -56 122 -56 214 0 89 23 189 43 189 4 0 27 9 51 20 65 29 142 103
162 156 l17 45 51 -6 c28 -4 76 -13 106 -21 64 -16 99 -18 134 -4 22 8 29 5
59 -32 39 -47 63 -45 52 6 -25 122 -14 134 53 60 35 -37 47 -44 65 -38 45 15
62 10 78 -24 13 -25 18 -29 23 -16 10 26 7 52 -14 111 -24 68 -46 93 -112 127
-50 26 -169 56 -218 56 l-25 -1 28 -15 c15 -8 27 -18 27 -23 0 -5 9 -11 21
-14 12 -3 18 -10 14 -16 -9 -15 -38 -14 -53 2 -9 8 -56 13 -140 15 -112 3
-132 1 -172 -18 -124 -58 -218 -138 -261 -222 -16 -32 -35 -58 -41 -58 -13 0
-98 88 -98 102 0 4 -11 25 -23 46 -13 20 -42 71 -64 112 -22 41 -50 93 -63
115 -12 22 -41 75 -64 118 -22 43 -62 118 -87 165 -26 48 -72 137 -103 197
-32 61 -92 178 -136 260 -136 262 -210 411 -210 427 0 16 228 203 345 283 39
26 90 57 115 68 66 29 223 57 320 57 79 0 93 -3 195 -47 127 -54 190 -99 200
-143 6 -26 10 -30 28 -24 29 8 54 30 88 78 25 33 29 49 29 101 0 62 -21 125
-55 169 -12 16 -14 37 -9 102 7 80 6 84 -25 133 -17 28 -31 61 -31 73 0 12
-14 50 -31 84 -40 83 -130 166 -235 218 -44 21 -88 43 -98 49 -11 5 -64 15
-119 22 -105 14 -230 9 -492 -21 -168 -18 -340 -18 -434 1 -41 9 -78 12 -82 8
-5 -5 35 -49 89 -98 53 -50 118 -110 144 -133 l47 -44 108 17 c182 29 268 30
352 7 85 -24 133 -58 161 -112 37 -72 19 -161 -44 -221 -34 -32 -33 -57 2 -65
15 -3 41 -12 59 -20 17 -8 35 -14 40 -14 16 0 87 -40 95 -53 6 -11 -17 -16
-110 -26 -64 -7 -133 -17 -152 -23 -19 -5 -51 -13 -70 -18 -33 -8 -56 -15
-145 -47 -85 -31 -208 -89 -288 -135 -75 -43 -79 -42 -132 57 -12 22 -32 58
-44 79 -13 22 -34 60 -48 85 -13 25 -35 64 -47 86 -42 75 -99 180 -128 235
-16 30 -44 82 -63 115 -18 33 -48 89 -67 125 -19 36 -51 97 -72 135 -72 134
-135 252 -262 493 -134 252 -171 323 -311 592 -56 107 -116 219 -185 350 -33
62 -73 136 -138 255 -24 44 -56 105 -72 135 -16 30 -44 82 -63 115 -18 33 -45
83 -59 110 -14 28 -44 84 -67 125 -23 41 -57 104 -76 140 -19 36 -50 92 -68
125 -18 33 -45 83 -59 110 -14 28 -42 79 -62 115 -35 64 -79 145 -144 265 -18
33 -46 84 -61 113 -16 28 -42 77 -59 107 -16 30 -44 81 -62 113 -17 31 -44 82
-60 112 -60 113 -173 321 -199 365 -10 17 -30 53 -44 80 -14 28 -41 77 -60
110 -18 33 -45 83 -60 110 -14 28 -36 68 -49 90 -12 22 -38 69 -58 105 -90
164 -103 187 -125 222 -13 21 -23 40 -23 42 0 21 -113 191 -154 233 -51 51
-92 68 -141 56z m4287 -5156 c40 -35 83 -72 96 -82 12 -11 22 -30 22 -43 0
-21 -3 -23 -22 -17 -13 4 -57 11 -98 15 -41 5 -76 9 -77 9 -13 4 -43 90 -43
124 0 78 26 77 122 -6z"/>
<path d="M3447 5964 c-4 -4 -7 -24 -7 -44 0 -20 -5 -52 -11 -70 -14 -40 -3
-77 49 -165 55 -92 67 -96 77 -23 11 79 9 147 -6 164 -14 17 -32 46 -48 79
-17 34 -46 66 -54 59z"/>
<path d="M3669 5553 c-6 -15 -13 -54 -16 -88 -4 -50 -2 -67 17 -103 12 -24 28
-41 34 -39 14 5 34 80 35 134 1 42 -32 123 -50 123 -5 0 -14 -12 -20 -27z"/>
<path d="M3380 5523 c0 -3 -7 -41 -16 -85 l-16 -78 38 -68 c20 -37 44 -79 51
-94 8 -16 18 -28 23 -28 12 0 30 58 37 121 6 59 7 54 -64 174 -7 11 -17 30
-22 43 -10 20 -31 31 -31 15z"/>
<path d="M3596 5124 c-4 -16 -7 -63 -9 -104 -1 -64 2 -81 22 -113 13 -21 26
-35 30 -32 3 4 13 41 22 83 18 86 10 125 -35 171 l-24 23 -6 -28z"/>
<path d="M3305 5071 c-3 -6 -8 -46 -12 -89 l-6 -80 47 -76 c25 -42 46 -81 46
-86 0 -6 6 -10 13 -10 12 0 37 108 37 159 0 22 -22 73 -50 116 -11 17 -24 40
-30 53 -10 22 -34 30 -45 13z"/>
<path d="M3537 4710 c-3 -8 -8 -35 -11 -60 -3 -25 -9 -60 -12 -78 -7 -34 2
-61 39 -115 10 -15 22 -25 26 -22 5 2 11 45 15 94 7 93 -1 128 -37 176 -13 16
-16 17 -20 5z"/>
<path d="M3519 1533 c-28 -60 -63 -135 -79 -168 -33 -68 -93 -197 -140 -300
-18 -38 -43 -93 -56 -121 -13 -28 -24 -54 -24 -57 0 -4 15 -7 34 -7 33 0 36 3
55 53 42 113 81 185 104 191 32 8 300 7 313 -2 16 -10 51 -78 84 -165 l28 -72
48 -3 c55 -4 74 9 53 35 -8 10 -21 34 -30 53 -9 19 -32 69 -52 110 -19 41 -47
102 -62 135 -14 33 -39 87 -54 120 -15 33 -37 80 -49 105 -88 193 -91 199
-115 200 -4 0 -30 -48 -58 -107z m81 -110 c12 -27 30 -66 40 -88 10 -22 30
-66 45 -97 14 -32 24 -62 20 -68 -10 -16 -274 -13 -281 3 -4 13 13 60 56 152
10 22 29 64 42 93 29 66 49 68 78 5z"/>
<path d="M4305 1615 c-120 -31 -216 -107 -265 -211 -27 -57 -30 -74 -30 -161
0 -87 3 -102 31 -159 48 -100 135 -168 259 -205 60 -18 254 -18 297 0 32 13
78 75 68 91 -3 5 -25 -4 -48 -20 -98 -66 -249 -63 -354 7 -85 56 -123 122
-144 247 -28 163 34 299 160 358 37 17 66 21 147 21 91 0 106 -2 149 -26 60
-34 69 -34 60 1 -9 38 -14 41 -81 57 -72 17 -182 17 -249 0z"/>
<path d="M1469 1612 c-5 -41 0 -722 5 -731 10 -16 267 -14 336 3 74 18 107 34
160 75 54 43 64 54 92 106 22 42 48 150 48 200 0 45 -26 155 -45 192 -21 42
-97 108 -154 135 -42 20 -65 22 -243 24 -109 2 -198 0 -199 -4z m366 -53 c65
-29 116 -84 143 -153 29 -75 31 -232 5 -309 -21 -60 -89 -134 -147 -161 -47
-21 -232 -33 -256 -17 -13 9 -15 58 -18 321 -2 230 0 315 9 326 20 24 204 19
264 -7z"/>
<path d="M2307 1611 l-58 -6 0 -360 c0 -290 2 -360 13 -362 7 -1 91 -4 186 -6
l173 -3 5 23 c12 46 1 53 -61 37 -33 -9 -88 -14 -133 -12 l-77 3 0 160 0 160
60 0 c33 0 80 -3 104 -5 37 -4 44 -2 51 16 15 38 1 43 -96 31 -50 -5 -99 -7
-108 -4 -15 6 -16 24 -14 149 l3 143 130 0 c127 0 130 1 133 23 3 22 3 22
-125 20 -70 -1 -154 -4 -186 -7z"/>
<path d="M2793 1613 c-5 -2 -7 -166 -7 -365 l2 -363 178 -6 c105 -3 184 -1
192 4 14 11 16 53 3 61 -5 3 -32 -1 -60 -10 -33 -9 -81 -14 -134 -12 l-82 3 0
342 0 341 -42 4 c-24 2 -46 2 -50 1z"/>
<path d="M4710 1602 c0 -4 10 -18 23 -32 13 -14 78 -98 146 -188 l122 -163 -1
-157 c-1 -86 -1 -163 -1 -170 1 -9 15 -12 48 -10 l47 3 -3 172 -3 172 59 78
c32 43 74 101 93 128 18 28 36 52 39 55 3 3 19 24 35 48 16 23 33 42 37 42 5
0 9 7 9 15 0 10 -10 15 -33 15 -31 0 -38 -7 -96 -92 -34 -51 -81 -121 -104
-155 -27 -40 -49 -62 -62 -62 -15 -1 -44 31 -104 111 -46 61 -94 131 -105 155
l-21 43 -62 0 c-35 0 -63 -3 -63 -8z"/>
</g>
</svg>
